<svg xmlns="http://www.w3.org/2000/svg" xmlns:xlink="http://www.w3.org/1999/xlink"><symbol viewBox="0 0 9 6" id="arrow" xmlns="http://www.w3.org/2000/svg"><path d="M8.934 1.51a.308.308 0 0 0-.09-.205L8.398.86a.308.308 0 0 0-.205-.09.308.308 0 0 0-.206.09L4.478 4.368.97.859a.308.308 0 0 0-.205-.09.29.29 0 0 0-.205.09l-.447.446a.308.308 0 0 0-.089.206c0 .071.036.152.09.205l4.16 4.16c.054.054.134.09.205.09a.308.308 0 0 0 .206-.09l4.16-4.16a.308.308 0 0 0 .09-.205Z" fill="carrentColor"/></symbol><symbol fill="none" viewBox="0 0 34 35" id="col-list-1" xmlns="http://www.w3.org/2000/svg"><path d="M23.429 14.929c0 4.962-4.038 9-9 9s-9-4.038-9-9 4.038-9 9-9 9 4.038 9 9Zm10.285 16.714c0-.683-.281-1.346-.743-1.808l-6.89-6.89a14.11 14.11 0 0 0 2.49-8.016C28.571 7.114 22.243.786 14.43.786 6.614.786.286 7.114.286 14.929c0 7.814 6.328 14.142 14.143 14.142a14.11 14.11 0 0 0 8.015-2.49l6.89 6.87a2.522 2.522 0 0 0 1.809.763 2.59 2.59 0 0 0 2.571-2.571Z" fill="#fff"/></symbol><symbol fill="none" viewBox="0 0 32 31" id="col-list-2" xmlns="http://www.w3.org/2000/svg"><path d="M26.286 23.214a2.59 2.59 0 0 1-2.572 2.572 2.59 2.59 0 0 1-2.571-2.572 2.59 2.59 0 0 1 2.571-2.571 2.59 2.59 0 0 1 2.572 2.571ZM10.857 7.786a2.59 2.59 0 0 1-2.571 2.571 2.59 2.59 0 0 1-2.572-2.571 2.59 2.59 0 0 1 2.572-2.572 2.59 2.59 0 0 1 2.571 2.572ZM31.43 23.214a7.716 7.716 0 0 0-7.715-7.714A7.716 7.716 0 0 0 16 23.214a7.716 7.716 0 0 0 7.714 7.715 7.716 7.716 0 0 0 7.715-7.715ZM29.5 1.357c0-.703-.583-1.286-1.286-1.286H25c-.402 0-.784.201-1.025.523L2.761 28.879c-.16.221-.261.483-.261.764 0 .703.583 1.286 1.286 1.286H7c.402 0 .783-.201 1.025-.523L29.239 2.121c.16-.221.261-.483.261-.764ZM16 7.786A7.716 7.716 0 0 0 8.286.07 7.716 7.716 0 0 0 .57 7.786 7.716 7.716 0 0 0 8.286 15.5 7.716 7.716 0 0 0 16 7.786Z" fill="#fff"/></symbol><symbol fill="none" viewBox="0 0 39 42" id="col-list-3" xmlns="http://www.w3.org/2000/svg"><path d="M15.493 23.122v-1.285c0-.362.281-.643.643-.643H30.28c.361 0 .643.281.643.643v1.285a.635.635 0 0 1-.643.643H16.136a.635.635 0 0 1-.643-.643ZM16.136 26.337H30.28c.361 0 .643.281.643.643v1.285a.635.635 0 0 1-.643.643H16.136a.635.635 0 0 1-.643-.643V26.98c0-.362.281-.643.643-.643ZM16.136 31.48H30.28c.361 0 .643.28.643.642v1.286a.635.635 0 0 1-.643.643H16.136a.635.635 0 0 1-.643-.643v-1.286c0-.361.281-.642.643-.642Z" fill="#fff"/><path fill-rule="evenodd" clip-rule="evenodd" d="M7.779 15.065a7.415 7.415 0 1 1 7.173-9.3h12.755c1.065 0 2.552.623 3.295 1.366L37.27 13.4c.743.744 1.366 2.23 1.366 3.295v23.143a1.93 1.93 0 0 1-1.928 1.928h-27a1.93 1.93 0 0 1-1.93-1.928V15.065Zm2.571-.458a7.421 7.421 0 0 0 4.813-6.27h10.616v8.357a1.93 1.93 0 0 0 1.928 1.928h8.358v20.572H10.35V14.607Zm18.824-5.668c-.14-.14-.482-.321-.824-.442v7.554h7.554c-.12-.341-.301-.683-.442-.824L29.174 8.94ZM8.779 8.65h4v-2h-4v-4h-2v4h-4v2h4v4h2v-4Z" fill="#fff"/></symbol><symbol fill="none" viewBox="0 0 37 30" id="col-list-4" xmlns="http://www.w3.org/2000/svg"><path d="M33.929 25.857a.661.661 0 0 1-.643.643H3.714a.661.661 0 0 1-.643-.643V10.43c.422.482.884.924 1.387 1.325 2.872 2.21 5.765 4.46 8.558 6.79 1.506 1.266 3.375 2.813 5.464 2.813h.04c2.09 0 3.958-1.547 5.464-2.812 2.793-2.33 5.686-4.58 8.558-6.79.503-.402.965-.844 1.387-1.326v15.428Zm0-21.114c0 1.708-1.648 3.938-2.954 4.962-2.692 2.11-5.384 4.24-8.055 6.369-1.065.863-2.994 2.712-4.4 2.712h-.04c-1.406 0-3.335-1.849-4.4-2.712-2.671-2.13-5.363-4.26-8.055-6.369C4.217 8.28 3.07 6.29 3.07 4c0-.342.302-.643.643-.643h29.572c.763 0 .643.884.643 1.386ZM36.5 4A3.224 3.224 0 0 0 33.286.786H3.714A3.224 3.224 0 0 0 .5 4v21.857a3.224 3.224 0 0 0 3.214 3.214h29.572a3.224 3.224 0 0 0 3.214-3.214V4Z" fill="#fff"/></symbol><symbol fill="none" viewBox="0 0 39 27" id="col-list-5" xmlns="http://www.w3.org/2000/svg"><path d="M15.429 18.786v-1.929H18v-5.786h-.04c-.322.503-.623.724-1.105 1.146l-1.547-1.608 2.973-2.752h2.29v9h2.572v1.929h-7.714Zm10.285-5.143c0-3.656-2.21-8.357-6.428-8.357-4.219 0-6.429 4.7-6.429 8.357 0 3.656 2.21 8.357 6.429 8.357 4.218 0 6.428-4.7 6.428-8.357ZM36 18.786a5.153 5.153 0 0 0-5.143 5.143H7.714a5.153 5.153 0 0 0-5.143-5.143V8.5a5.153 5.153 0 0 0 5.143-5.143h23.143A5.153 5.153 0 0 0 36 8.5v10.286ZM38.571 2.07c0-.703-.582-1.285-1.285-1.285h-36C.583.786 0 1.368 0 2.07v23.143c0 .703.583 1.286 1.286 1.286h36c.703 0 1.285-.583 1.285-1.286V2.071Z" fill="#fff"/></symbol><symbol fill="none" viewBox="0 0 18 21" id="exp-file" xmlns="http://www.w3.org/2000/svg"><path d="M16.813 4.609 13.33 1.127c-.413-.413-1.239-.76-1.83-.76h-10C.908.368.429.848.429 1.44v17.858c0 .591.48 1.07 1.071 1.07h15c.591 0 1.071-.479 1.071-1.07V6.439c0-.591-.346-1.417-.759-1.83Zm-4.956-2.723c.19.067.38.167.458.245l3.493 3.494c.078.078.179.267.246.457h-4.197V1.886Zm4.286 17.053H1.857V1.796h8.572V6.44c0 .592.48 1.072 1.071 1.072h4.643v11.428ZM4.714 9.296v.715c0 .2.157.357.357.357h7.858c.2 0 .357-.156.357-.357v-.715c0-.2-.156-.357-.357-.357H5.07c-.2 0-.357.157-.357.357Zm8.215 2.5H5.07c-.2 0-.357.157-.357.358v.714c0 .2.157.357.357.357h7.858c.2 0 .357-.156.357-.357v-.714c0-.201-.156-.357-.357-.357Zm0 2.858H5.07c-.2 0-.357.156-.357.357v.714c0 .201.157.357.357.357h7.858c.2 0 .357-.156.357-.357v-.714c0-.201-.156-.357-.357-.357Z" fill="#272733"/></symbol><symbol fill="none" viewBox="0 0 21 20" id="footer-icon-1" xmlns="http://www.w3.org/2000/svg"><g clip-path="url(#ha)"><path d="M16.912 13.456c.06.388-.067.552-.195.552s-.314-.158-.521-.47c-.207-.313-.278-.661-.178-.84a.287.287 0 0 1 .17-.126.298.298 0 0 1 .213.022c.341.124.475.63.51.862Zm-1.888.85c.41.335.535.733.318 1.013a.687.687 0 0 1-.55.238.998.998 0 0 1-.626-.218c-.37-.314-.48-.825-.237-1.114a.534.534 0 0 1 .434-.176c.245.008.479.099.661.257Zm-.684 3.23c1.762 0 3.674.585 5.791 2.4.211.18.493-.045.309-.27-2.08-2.54-4.008-3.025-5.922-3.433-2.346-.502-3.554-1.78-4.4-3.182-.166-.279-.242-.23-.257.13a7.655 7.655 0 0 0 .124 1.59H9.7a6.226 6.226 0 0 1-3.377-.992 5.927 5.927 0 0 1-2.239-2.639 5.701 5.701 0 0 1-.345-3.397A5.823 5.823 0 0 1 5.4 4.733a6.145 6.145 0 0 1 3.112-1.61 6.27 6.27 0 0 1 3.512.335 6.04 6.04 0 0 1 2.728 2.166 5.744 5.744 0 0 1 .986 3.95 9.38 9.38 0 0 0-1.93-.035c-.232.02-.198.13-.025.154 2.004.35 3.391 1.55 3.706 3.74a.053.053 0 0 0 .014.03.055.055 0 0 0 .062.014.055.055 0 0 0 .026-.021 8.658 8.658 0 0 0 1.24-5.608 8.78 8.78 0 0 0-2.554-5.176 9.31 9.31 0 0 0-5.29-2.59A9.46 9.46 0 0 0 5.165 1.15a9.001 9.001 0 0 0-3.94 4.286 8.625 8.625 0 0 0-.417 5.72 8.884 8.884 0 0 0 3.28 4.779 9.399 9.399 0 0 0 5.612 1.849c1.343.004 2.68-.25 4.641-.25v.002Z" fill="#3E9CDC"/></g><defs><clipPath id="ha"><path fill="#fff" transform="translate(.5)" d="M0 0h20v20H0z"/></clipPath></defs></symbol><symbol fill="none" viewBox="0 0 21 20" id="footer-icon-2" xmlns="http://www.w3.org/2000/svg"><path fill-rule="evenodd" clip-rule="evenodd" d="M3.78 9.93c0-.983.083-1.608 2.138-3.13 1.701-1.259 7.155-5.563 7.155-5.563v7.185h4.147v10.34H5.075a1.294 1.294 0 0 1-1.295-1.284V9.93Z" fill="#3E9CDC"/><path fill-rule="evenodd" clip-rule="evenodd" d="M13.073 8.422v4.163l-7.62 5.148 9.634-3.108V8.422h-2.014Z" fill="#000" fill-opacity=".2"/><path fill-rule="evenodd" clip-rule="evenodd" d="M9.59 8.207c.446-.527 1.097-.713 1.454-.415.358.297.286.965-.16 1.492-.445.526-1.096.712-1.453.415-.358-.298-.286-.966.16-1.492Z" fill="#231F20"/></symbol><symbol fill="none" viewBox="0 0 21 20" id="footer-icon-3" xmlns="http://www.w3.org/2000/svg"><g clip-path="url(#ja)"><path d="M9.34 0c1.411 0 2.753.323 3.957.901.189.085.379.187.567.29l-.826.73L11.801.647l-2.133 1.87-1.256-1.343L4.49 4.66l2.511 2.737-.98.85 2.477 2.738-.98.85 3.543 3.893 2.098-1.904 1.824 2.04c-.362.273-.758.546-1.187.783a9.07 9.07 0 0 1-4.438 1.156c-4.971 0-9.012-3.995-9.012-8.909C.328 4.013 4.37 0 9.34 0ZM7.69 8.349l2.15-1.905 1.926 2.126-2.15 1.904-1.927-2.125Zm1.53 3.672 2.133-1.92 1.944 2.124-2.15 1.905L9.22 12.02ZM6.16 4.727l2.149-1.904 1.926 2.125-2.15 1.904L6.16 4.727Zm3.937-1.02 1.6-1.429 1.445 1.582-1.6 1.445-1.445-1.598Zm2.856 6.546 1.6-1.428 1.444 1.597-1.6 1.43-1.444-1.6Zm1.41 3.214 1.6-1.429 1.444 1.582-1.6 1.444-1.444-1.597Zm.654-7.346 1.066-.952.963 1.054-1.066.952-.963-1.054ZM13.64 2.975l1.066-.968.964 1.07-1.067.953-.963-1.055Zm2.734 6.292 1.067-.952.98 1.054-1.083.952-.963-1.054Zm-4.798-2.364 1.6-1.428 1.444 1.581-1.599 1.429-1.445-1.582Z" fill="#3E9CDC"/></g><defs><clipPath id="ja"><path fill="#fff" transform="translate(.5)" d="M0 0h20v20H0z"/></clipPath></defs></symbol><symbol fill="none" viewBox="0 0 21 20" id="footer-icon-4" xmlns="http://www.w3.org/2000/svg"><path d="M16.75 14.85a.275.275 0 0 1-.267.267H4.16a.275.275 0 0 1-.268-.268V8.421c.176.2.369.385.578.552 1.197.92 2.402 1.858 3.566 2.83.627.527 1.406 1.171 2.276 1.171h.017c.87 0 1.65-.644 2.277-1.172a114.783 114.783 0 0 1 3.566-2.829c.209-.167.402-.352.577-.552v6.428Zm0-8.798c0 .711-.686 1.64-1.23 2.067a517.56 517.56 0 0 0-3.357 2.654c-.443.36-1.247 1.13-1.833 1.13h-.017c-.586 0-1.39-.77-1.833-1.13a518.102 518.102 0 0 0-3.356-2.654c-.754-.594-1.23-1.423-1.23-2.377 0-.142.125-.268.267-.268h12.322c.318 0 .267.368.267.578Zm1.072-.31c0-.737-.603-1.34-1.34-1.34H4.163c-.738 0-1.34.603-1.34 1.34v9.107c0 .737.602 1.34 1.34 1.34h12.32c.737 0 1.34-.603 1.34-1.34V5.742Z" fill="#3E9CDC"/></symbol><symbol fill="none" viewBox="0 0 21 20" id="footer-icon-5" xmlns="http://www.w3.org/2000/svg"><path d="M15.18 12.286c0 .65-.123 1.222-.369 1.714s-.577.9-.993 1.222a4.598 4.598 0 0 1-1.626.826c-.586.164-1.333.246-2.241.246H4.713V3.207h4.623c.96 0 1.687.038 2.18.114.497.07.963.223 1.397.457.469.252.817.59 1.046 1.011.234.422.351.908.351 1.46 0 .638-.16 1.206-.483 1.704a2.794 2.794 0 0 1-1.319 1.099v.07c.81.17 1.457.519 1.943 1.046.486.522.73 1.228.73 2.118Zm-4.21-5.379c0-.21-.055-.427-.167-.65a.961.961 0 0 0-.5-.483 2.042 2.042 0 0 0-.774-.15 36.06 36.06 0 0 0-1.318-.017h-.229v2.768h.413c.563 0 .955-.006 1.178-.017.229-.012.463-.074.703-.185.264-.123.445-.293.545-.51.1-.217.15-.469.15-.756Zm.827 5.318c0-.405-.082-.721-.247-.95-.164-.228-.41-.4-.738-.518-.199-.076-.474-.117-.826-.123a43.486 43.486 0 0 0-1.397-.018h-.607v3.279h.176c.855 0 1.447-.006 1.775-.018.329-.012.662-.09 1.002-.237.3-.13.516-.317.65-.563.141-.252.212-.536.212-.852Z" fill="#3E9CDC"/></symbol><symbol fill="none" viewBox="0 0 245 21" id="logo" xmlns="http://www.w3.org/2000/svg"><path d="M.69 20.5V.62h4.592v15.848h9.632V20.5H.69Zm23.829.168c-1.475 0-2.819-.29-4.032-.868a10.05 10.05 0 0 1-3.108-2.268 10.79 10.79 0 0 1-2.016-3.248 10.366 10.366 0 0 1-.7-3.752c0-1.307.242-2.567.728-3.78a10.236 10.236 0 0 1 2.072-3.192 9.969 9.969 0 0 1 3.164-2.212c1.213-.56 2.539-.84 3.976-.84 1.474 0 2.819.29 4.032.868a9.835 9.835 0 0 1 3.108 2.296A10.356 10.356 0 0 1 33.73 6.92c.466 1.213.7 2.445.7 3.696a9.76 9.76 0 0 1-.756 3.78 10.17 10.17 0 0 1-2.044 3.22 10.242 10.242 0 0 1-3.136 2.212c-1.213.56-2.539.84-3.976.84Zm-5.18-10.08c0 .765.112 1.512.336 2.24.224.71.55 1.344.98 1.904a5.04 5.04 0 0 0 1.652 1.344c.653.336 1.4.504 2.24.504.877 0 1.642-.177 2.296-.532a5.054 5.054 0 0 0 1.624-1.372c.43-.579.747-1.223.952-1.932a7.482 7.482 0 0 0 .336-2.212c0-.765-.112-1.503-.336-2.212a5.474 5.474 0 0 0-1.008-1.904A4.74 4.74 0 0 0 26.759 5.1c-.635-.336-1.372-.504-2.212-.504-.878 0-1.643.177-2.296.532a5.134 5.134 0 0 0-1.624 1.344 6.084 6.084 0 0 0-.98 1.932 7.816 7.816 0 0 0-.308 2.184ZM37.084 20.5V.62h8.96c.934 0 1.792.196 2.576.588a6.825 6.825 0 0 1 2.072 1.54 6.983 6.983 0 0 1 1.344 2.156c.336.803.504 1.615.504 2.436a7.14 7.14 0 0 1-.224 1.792 6.972 6.972 0 0 1-.644 1.596c-.28.504-.625.961-1.036 1.372-.392.392-.84.728-1.344 1.008L53.66 20.5h-5.18l-3.808-6.412h-2.996V20.5h-4.592Zm4.592-10.416h4.2c.542 0 1.008-.252 1.4-.756.392-.523.588-1.185.588-1.988 0-.821-.224-1.475-.672-1.96-.448-.485-.933-.728-1.456-.728h-4.06v5.432Zm28.138 6.384V20.5H55.842V.62h13.72v4.032h-9.128v3.864h7.84v3.724h-7.84v4.228h9.38Zm18.47 4.032V8.6l-4.312 8.652h-2.464L77.196 8.6v11.9h-4.592V.62h4.984l5.152 10.388L87.92.62h4.956V20.5h-4.592Zm8.41 0V.62h4.592V20.5h-4.592Zm8.394 0V.62h8.484c.952 0 1.82.196 2.604.588a6.483 6.483 0 0 1 2.044 1.54 6.972 6.972 0 0 1 1.344 2.156c.336.803.504 1.615.504 2.436a6.8 6.8 0 0 1-.476 2.52 6.835 6.835 0 0 1-1.288 2.156 5.92 5.92 0 0 1-1.988 1.512c-.784.373-1.652.56-2.604.56h-4.032V20.5h-4.592Zm4.592-10.416h3.752c.541 0 1.008-.233 1.4-.7.392-.467.588-1.148.588-2.044 0-.467-.065-.868-.196-1.204a2.305 2.305 0 0 0-.476-.84 1.737 1.737 0 0 0-.7-.476 1.976 1.976 0 0 0-.784-.168h-3.584v5.432Zm24.781-3.64c-.056-.075-.252-.215-.588-.42a12.166 12.166 0 0 0-2.912-1.232 6.587 6.587 0 0 0-1.792-.252c-1.642 0-2.464.55-2.464 1.652 0 .336.084.616.252.84.187.224.448.43.784.616.355.168.794.327 1.316.476.523.15 1.13.317 1.82.504.952.261 1.811.55 2.576.868.766.299 1.41.681 1.932 1.148.542.448.952.999 1.232 1.652.299.653.448 1.437.448 2.352 0 1.12-.214 2.072-.644 2.856a5.334 5.334 0 0 1-1.652 1.876 7.422 7.422 0 0 1-2.38 1.036c-.896.205-1.82.308-2.772.308a15.47 15.47 0 0 1-2.24-.168 17.684 17.684 0 0 1-2.24-.476 20.699 20.699 0 0 1-2.128-.784 12.111 12.111 0 0 1-1.876-1.036l2.016-4.004c.075.093.318.27.728.532.411.261.915.523 1.512.784.616.261 1.298.495 2.044.7a8.521 8.521 0 0 0 2.268.308c1.624 0 2.436-.495 2.436-1.484 0-.373-.121-.681-.364-.924-.242-.243-.578-.457-1.008-.644a9.619 9.619 0 0 0-1.54-.56c-.578-.168-1.213-.355-1.904-.56a17.89 17.89 0 0 1-2.38-.896c-.672-.336-1.232-.719-1.68-1.148a4.383 4.383 0 0 1-.98-1.484c-.205-.56-.308-1.213-.308-1.96 0-1.045.196-1.97.588-2.772a5.844 5.844 0 0 1 1.596-2.016 6.838 6.838 0 0 1 2.324-1.26 9.428 9.428 0 0 1 2.828-.42c.691 0 1.372.065 2.044.196.672.13 1.316.299 1.932.504.616.205 1.186.439 1.708.7.542.261 1.036.523 1.484.784l-2.016 3.808ZM148.3 16.58c.784 0 1.447-.159 1.988-.476.541-.336.98-.775 1.316-1.316a5.364 5.364 0 0 0 .7-1.848c.149-.71.224-1.428.224-2.156V.62h4.592v10.164c0 1.381-.177 2.67-.532 3.864-.336 1.195-.868 2.24-1.596 3.136-.709.896-1.624 1.605-2.744 2.128-1.101.504-2.417.756-3.948.756-1.587 0-2.94-.27-4.06-.812-1.12-.541-2.035-1.26-2.744-2.156-.691-.915-1.204-1.97-1.54-3.164a14.57 14.57 0 0 1-.476-3.752V.62h4.592v10.164c0 .765.075 1.493.224 2.184.149.69.392 1.307.728 1.848.336.541.765.97 1.288 1.288.541.317 1.204.476 1.988.476Zm28.058 3.92V8.6l-4.312 8.652h-2.464L165.27 8.6v11.9h-4.592V.62h4.984l5.152 10.388L175.994.62h4.956V20.5h-4.592Zm8.018 0v-4.564h3.668V20.5h-3.668Z" fill="#fff"/><path d="M196.059 9.132V20.5h-4.592V.62h3.584l9.268 11.676V.62h4.592V20.5h-3.696l-9.156-11.368Zm30.626 7.336V20.5h-13.972V.62h13.72v4.032h-9.128v3.864h7.84v3.724h-7.84v4.228h9.38Zm17.938-11.816h-6.048V20.5h-4.592V4.652h-6.076V.62h16.716v4.032Z" fill="#42A9ED"/></symbol><symbol fill="none" viewBox="0 0 110 6" id="points-col" xmlns="http://www.w3.org/2000/svg"><circle cx="81" cy="3" r="3" fill="#C4C4C4"/><circle cx="107" cy="3" r="3" fill="#C4C4C4"/><circle cx="55" cy="3" r="3" fill="#C4C4C4"/><circle cx="29" cy="3" r="3" fill="#C4C4C4"/><circle cx="3" cy="3" r="3" fill="#C4C4C4"/></symbol></svg>